<svg width="200" height="200" viewBox="0 0 200 200" fill="none" xmlns="http://www.w3.org/2000/svg">
<circle cx="100" cy="100" r="100" fill="#88D0D3"/>
<path d="M100 50C106.63 50 112.989 52.6339 117.678 57.3223C122.366 62.0107 125 68.3696 125 75C125 81.6304 122.366 87.9893 117.678 92.6777C112.989 97.3661 106.63 100 100 100C93.3696 100 87.0107 97.3661 82.3223 92.6777C77.6339 87.9893 75 81.6304 75 75C75 68.3696 77.6339 62.0107 82.3223 57.3223C87.0107 52.6339 93.3696 50 100 50ZM100 112.5C127.625 112.5 150 123.687 150 137.5V150H50V137.5C50 123.687 72.375 112.5 100 112.5Z" fill="white"/>
</svg>
